<svg width="164" height="26" viewBox="0 0 164 26" fill="none" xmlns="http://www.w3.org/2000/svg">
<g clip-path="url(#clip0_9_2893)">
<path d="M81.3333 21.7512H79.4992C79.0137 21.7512 78.6201 22.1448 78.6201 22.6302V24.4644C78.6201 24.9499 79.0137 25.3435 79.4992 25.3435H81.3333C81.8188 25.3435 82.2124 24.9499 82.2124 24.4644V22.6302C82.2124 22.1448 81.8188 21.7512 81.3333 21.7512Z" fill="#E6FF02"/>
<path d="M70.6327 8.30119V13.6055C70.6327 14.1081 70.2262 14.5146 69.7236 14.5146H60.9812C60.4786 14.5146 60.0721 14.1081 60.0721 13.6055V8.30119C60.0721 7.79859 59.6656 7.39211 59.1631 7.39211H57.2648C56.7622 7.39211 56.3557 7.79859 56.3557 8.30119V11.9135C56.3557 11.9996 56.3597 12.0857 56.3657 12.1718C56.4498 13.3432 57.1567 14.3804 58.1659 14.9811L59.2171 15.6079C59.8018 15.9563 59.7938 16.8073 59.2011 17.1437L58.2339 17.6944C57.1927 18.2871 56.4538 19.3403 56.3677 20.5358C56.3617 20.6239 56.3577 20.712 56.3577 20.8001V24.4444C56.3577 24.947 56.7642 25.3535 57.2668 25.3535H59.1651C59.6677 25.3535 60.0741 24.947 60.0741 24.4444V19.1401C60.0741 18.6375 60.4806 18.231 60.9832 18.231H69.7256C70.2282 18.231 70.6347 18.6375 70.6347 19.1401V24.4444C70.6347 24.947 71.0412 25.3535 71.5438 25.3535H73.4421C73.9446 25.3535 74.3511 24.947 74.3511 24.4444V21.7492V20.7981C74.3511 20.71 74.3471 20.6219 74.3411 20.5337C74.253 19.3383 73.5161 18.2851 72.4749 17.6924L71.5077 17.1417C70.915 16.8053 70.907 15.9543 71.4917 15.6059L72.543 14.9791C73.5522 14.3784 74.259 13.3412 74.3431 12.1698C74.3491 12.0837 74.3531 11.9976 74.3531 11.9115V8.29919C74.3531 7.79659 73.9466 7.39011 73.444 7.39011H71.5458C71.0432 7.39011 70.6367 7.79659 70.6367 8.29919L70.6327 8.30119Z" fill="white"/>
<path d="M31.8704 5.60998V20.8421C31.8704 21.3447 32.2769 21.7512 32.7795 21.7512H38.0137C38.5163 21.7512 38.9228 22.1577 38.9228 22.6603V24.5585C38.9228 25.0611 38.5163 25.4676 38.0137 25.4676H22.0087C21.5061 25.4676 21.0996 25.0611 21.0996 24.5585V22.6603C21.0996 22.1577 21.5061 21.7512 22.0087 21.7512H27.2429C27.7455 21.7512 28.152 21.3447 28.152 20.8421V5.13141C28.152 4.62882 27.7455 4.22233 27.2429 4.22233H22.0087C21.5061 4.22233 21.0996 3.81585 21.0996 3.31325V1.41299C21.0996 0.91039 21.5061 0.503906 22.0087 0.503906H26.7644C29.5837 0.503906 31.8704 2.79063 31.8704 5.60998Z" fill="white"/>
<path d="M18.7671 24.4784V1.41299C18.7671 0.91039 18.3606 0.503906 17.858 0.503906H15.9597C15.4571 0.503906 15.0507 0.91039 15.0507 1.41299V6.48102C15.0507 6.98362 14.6442 7.3901 14.1416 7.3901H9.58816C8.61701 7.3901 7.6859 7.77856 7.00309 8.46939L1.87698 13.6115C1.20218 14.2923 0.82373 15.2134 0.82373 16.1706V20.1032C0.82373 21.0624 1.20218 21.9815 1.87698 22.6623L3.50692 24.3082C4.18974 24.9991 5.12084 25.3875 6.092 25.3875H17.86C18.3626 25.3875 18.7691 24.981 18.7691 24.4784H18.7671ZM14.1416 21.7512H5.44723C4.94463 21.7512 4.53815 21.3447 4.53815 20.8421V13.5594C4.53815 12.2058 5.63546 11.1085 6.98907 11.1085H14.1396C14.6422 11.1085 15.0487 11.515 15.0487 12.0176V20.8421C15.0487 21.3447 14.6422 21.7512 14.1396 21.7512H14.1416Z" fill="white"/>
<path d="M46.4238 25.4676H52.6913C53.1939 25.4676 53.6004 25.0611 53.6004 24.5585V22.6603C53.6004 22.1577 53.1939 21.7512 52.6913 21.7512H47.413C46.9104 21.7512 46.5039 21.3447 46.5039 20.8421V12.0176C46.5039 11.515 46.9104 11.1085 47.413 11.1085H52.6472C53.1498 11.1085 53.5563 10.702 53.5563 10.1994V8.30119C53.5563 7.79859 53.1498 7.3921 52.6472 7.3921H47.413C46.9104 7.3921 46.5039 6.98562 46.5039 6.48302V1.41299C46.5039 0.91039 46.0974 0.503906 45.5948 0.503906H43.6966C43.194 0.503906 42.7875 0.91039 42.7875 1.41299V6.48102C42.7875 6.98362 42.381 7.3901 41.8784 7.3901H36.6442C36.1416 7.3901 35.7351 7.79659 35.7351 8.29918V10.1974C35.7351 10.7 36.1416 11.1065 36.6442 11.1065H41.8784C42.381 11.1065 42.7875 11.513 42.7875 12.0156V21.8273C42.7875 23.8377 44.4174 25.4656 46.4258 25.4656L46.4238 25.4676Z" fill="white"/>
<path d="M96.9759 5.58595V20.748C96.9759 21.2486 97.3804 21.6531 97.881 21.6531H103.091C103.592 21.6531 103.996 22.0576 103.996 22.5582V24.4484C103.996 24.949 103.592 25.3535 103.091 25.3535H87.1583C86.6577 25.3535 86.2532 24.949 86.2532 24.4484V22.5582C86.2532 22.0576 86.6577 21.6531 87.1583 21.6531H92.3685C92.869 21.6531 93.2735 21.2486 93.2735 20.748V5.10939C93.2735 4.60879 92.869 4.20431 92.3685 4.20431H87.1583C86.6577 4.20431 86.2532 3.79983 86.2532 3.29923V1.40898C86.2532 0.908388 86.6597 0.503906 87.1583 0.503906H91.8919C94.6992 0.503906 96.9739 2.77861 96.9739 5.58595H96.9759Z" fill="#E6FF02"/>
<path d="M118.095 21.6551H109.613C109.112 21.6551 108.708 21.2506 108.708 20.75V11.9656C108.708 11.465 109.112 11.0605 109.613 11.0605H118.265C118.766 11.0605 119.17 11.465 119.17 11.9656V24.3703C119.17 24.8709 119.575 25.2754 120.076 25.2754H121.966C122.466 25.2754 122.871 24.8709 122.871 24.3703V11.8875C122.871 9.38649 120.844 7.36008 118.343 7.36008H110.218C109.251 7.36008 108.324 7.74654 107.645 8.43335L106.055 10.0393C105.384 10.7181 105.008 11.6332 105.008 12.5883V20.0171C105.008 20.9703 105.384 21.8874 106.055 22.5642L107.677 24.2021C108.358 24.8889 109.283 25.2754 110.25 25.2754H115.32C115.568 25.2754 115.804 25.1733 115.977 24.9931L118.422 22.418C118.696 22.1297 118.492 21.6531 118.093 21.6531L118.095 21.6551Z" fill="#E6FF02"/>
<path d="M130.384 10.9804H138.866C139.367 10.9804 139.771 11.3849 139.771 11.8855V20.6699C139.771 21.1705 139.367 21.575 138.866 21.575H130.214C129.713 21.575 129.309 21.1705 129.309 20.6699V1.40898C129.309 0.908388 128.904 0.503906 128.403 0.503906H126.513C126.013 0.503906 125.608 0.908388 125.608 1.40898V20.748C125.608 23.249 127.635 25.2754 130.136 25.2754H138.261C139.228 25.2754 140.155 24.8889 140.834 24.2021L142.424 22.5962C143.095 21.9174 143.471 21.0023 143.471 20.0472V12.6183C143.471 11.6652 143.095 10.7481 142.424 10.0713L140.802 8.43334C140.121 7.74653 139.196 7.36007 138.229 7.36007H133.159C132.911 7.36007 132.675 7.46219 132.502 7.6424L130.057 10.2175C129.783 10.5058 129.987 10.9824 130.386 10.9824L130.384 10.9804Z" fill="#E6FF02"/>
<path d="M163.643 19.8469V21.6551L161.314 24.2962C160.764 24.919 159.973 25.2774 159.142 25.2774H147.446C146.945 25.2774 146.541 24.8729 146.541 24.3723V22.5622C146.541 22.0616 146.945 21.6571 147.446 21.6571H159.57C159.821 21.6571 160.023 21.4548 160.023 21.2045V18.9198C160.023 18.6695 159.821 18.4673 159.57 18.4673H150.88C150.349 18.4673 149.835 18.2751 149.434 17.9286L146.665 15.5318C146.18 15.1113 145.902 14.5026 145.902 13.8618V11.3268C145.902 11.1065 145.982 10.8923 146.128 10.7281L147.744 8.8959C148.603 7.92074 149.841 7.36407 151.14 7.36407H162.101C162.602 7.36407 163.006 7.76856 163.006 8.26915V10.0793C163.006 10.5799 162.602 10.9844 162.101 10.9844H149.524V14.3944C149.524 14.6447 149.727 14.847 149.977 14.847H159.05C159.719 14.847 160.353 15.1413 160.786 15.6539L163.125 18.4252C163.461 18.8237 163.645 19.3283 163.645 19.8509L163.643 19.8469Z" fill="#E6FF02"/>
</g>
<defs>
<clipPath id="clip0_9_2893">
<rect width="162.822" height="24.9637" fill="white" transform="translate(0.821533 0.503906)"/>
</clipPath>
</defs>
</svg>
