<svg width="385" height="362" viewBox="0 0 385 362" fill="none" xmlns="http://www.w3.org/2000/svg">
    <g clip-path="url(#clip0_9_3344)">
        <path
            d="M0.739892 359.602H1.09037L383.537 361.121C383.537 361.121 383.926 361.121 384.082 360.926L384.277 360.732C384.277 360.732 384.394 360.42 384.432 360.264C384.432 360.225 384.549 360.225 384.549 360.148C384.549 360.07 384.471 359.953 384.394 359.875C384.394 359.758 384.394 359.68 384.277 359.563L384.121 359.369L199.382 1.33876C199.382 1.33876 199.109 1.26087 198.992 1.22193C198.797 1.14405 198.642 0.988281 198.408 0.988281C198.408 0.988281 198.408 0.988281 198.408 1.02722C198.408 1.02722 198.408 1.02722 198.369 1.02722C198.135 1.18299 198.135 1.45558 198.058 1.68923C198.058 1.80606 197.824 1.845 197.902 1.96182L3.34899 347.336L3.15428 347.53L2.95957 347.725V347.92L2.76486 348.115V348.309L0.194709 358.084C0.194709 358.084 0.194709 358.278 0 358.473V358.863C0 358.863 0 359.252 0.194709 359.447C0.389417 359.641 0.545184 359.641 0.739892 359.641V359.602ZM10.5532 357.889L94.161 343.325L221.578 321.089L325.163 346.596L376.566 359.447L10.5532 357.928V357.889ZM222.863 319.337L267.607 224.981L267.685 224.903L381.473 358.824L222.863 319.337ZM379.682 354.228L379.526 354.034L368.856 341.495L268.269 222.995L202.146 10.3343L379.682 354.228ZM198.797 4.92139L266.322 222.099L149.614 182.612L198.797 4.92139ZM196.033 8.07567L147.784 182.768V182.963L147.589 183.158V183.352L93.5769 244.724L77.8834 262.365L8.684 340.988L196.033 8.07567ZM0.934601 357.694H1.12931L2.06391 357.305L4.28359 348.855H4.08888L5.02348 347.686L6.30856 346.362L6.65903 346.168L145.915 187.363L146.109 187.169V186.974L147.589 185.455L148.329 184.676L148.524 185.066H148.718L149.069 184.092L150.354 184.482V184.676L265.582 223.813H265.777L266.517 224.007L266.322 224.397L265.582 225.721V225.916L221.734 318.168L221.384 319.142H221.189L220.254 318.947V319.142L220.449 319.337L217.84 319.726H217.295L215.075 320.31H214.88L6.85374 356.721H6.65903L6.46432 356.915H5.91914L3.15428 357.5H2.95957L0.934601 357.889V357.694Z"
            fill="white" />
    </g>
    <defs>
        <clipPath id="clip0_9_3344">
            <rect width="384.549" height="360.133" fill="white" transform="translate(0 0.988281)" />
        </clipPath>
    </defs>
</svg>