<svg width="430" height="430" viewBox="0 0 430 430" fill="none" xmlns="http://www.w3.org/2000/svg">
    <path
        d="M427.661 215.335C427.661 222.278 316.819 221.926 315.913 228.668C315.007 235.511 422.176 263.737 420.466 270.278C418.705 276.919 311.737 247.888 309.121 254.177C306.504 260.517 402.604 315.661 399.233 321.598C395.812 327.535 300.064 271.687 295.888 277.121C291.712 282.555 370.353 360.692 365.472 365.523C360.642 370.353 282.504 291.712 277.071 295.888C271.637 300.064 327.485 395.812 321.548 399.233C315.661 402.654 260.517 306.504 254.178 309.12C247.888 311.737 276.97 418.705 270.278 420.465C263.737 422.226 235.511 315.058 228.668 315.913C221.977 316.768 222.279 427.66 215.335 427.66C208.392 427.66 208.744 316.819 202.002 315.913C195.159 315.007 166.933 422.176 160.392 420.465C153.751 418.705 182.782 311.737 176.493 309.12C170.153 306.504 115.009 402.604 109.072 399.233C103.135 395.812 158.983 300.064 153.549 295.888C148.116 291.712 69.9778 370.353 65.1476 365.472C60.3175 360.642 138.958 282.504 134.782 277.07C130.606 271.636 34.8586 327.485 31.4372 321.548C28.0159 315.661 124.166 260.517 121.55 254.177C118.933 247.888 11.9657 276.97 10.2047 270.278C8.44369 263.737 115.613 235.511 114.757 228.668C113.902 221.976 3.00977 222.278 3.00977 215.335C3.00977 208.392 113.852 208.744 114.757 202.002C115.663 195.159 8.494 166.933 10.2047 160.392C11.9657 153.751 118.933 182.782 121.55 176.493C124.166 170.153 28.0662 115.009 31.4372 109.072C34.8586 103.135 130.606 158.983 134.782 153.549C138.958 148.115 60.3175 69.9776 65.198 65.1475C70.0281 60.3173 148.166 138.958 153.6 134.782C159.034 130.606 103.185 34.8584 109.122 31.437C115.009 28.0157 170.153 124.166 176.493 121.55C182.782 118.933 153.7 11.9655 160.392 10.2045C166.933 8.4435 195.159 115.612 202.002 114.757C208.694 113.902 208.392 3.00958 215.335 3.00958C222.279 3.00958 221.926 113.852 228.668 114.757C235.511 115.663 263.737 8.49382 270.278 10.2045C276.92 11.9655 247.888 118.933 254.178 121.55C260.517 124.166 315.661 28.066 321.599 31.437C327.536 34.8584 271.687 130.606 277.121 134.782C282.555 138.958 360.693 60.3173 365.523 65.1978C370.353 70.0279 291.712 148.166 295.888 153.6C300.064 159.034 395.812 103.185 399.233 109.122C402.654 115.009 306.504 170.153 309.121 176.493C311.737 182.782 418.705 153.7 420.466 160.392C422.227 166.933 315.058 195.159 315.913 202.002C316.768 208.694 427.661 208.392 427.661 215.335Z"
        stroke="white" stroke-width="2" stroke-miterlimit="10" />
</svg>