<svg width="425" height="425" viewBox="0 0 425 425" fill="none" xmlns="http://www.w3.org/2000/svg">
    <path
        d="M2.94775 399.075C2.94775 403.203 5.48774 406.559 8.43593 406.106C15.4209 405.108 28.7558 410.188 46.4903 413.499C59.9159 416.946 75.8362 407.512 93.3893 409.19C110.988 434 130.264 416.175 150.357 413.499C170.451 417.399 191.405 403.067 212.36 412.637C233.315 405.199 254.27 400.708 274.363 413.499C294.456 428.92 313.733 404.065 331.331 413.408C348.93 412.546 364.85 389.913 378.23 413.499C405.036 426.743 421.818 416.628 421.818 413.499C421.818 421.89 421.818 404.745 421.818 372.904V329.815C421.818 333.489 421.818 298.882 421.818 308.407V276.113C421.818 267.359 421.818 247.13 421.818 252.165C421.818 260.782 421.818 221.231 421.818 221.05C421.818 209.801 421.818 221.73 421.818 198.87V160.544C421.818 134.781 421.818 129.111 421.818 131.606C421.818 108.293 421.818 129.565 421.818 109.744V63.7522C421.818 31.5035 422.997 25.335 421.863 23.9289C416.829 17.6697 405.036 1.93087 378.23 23.1579C364.805 31.821 348.884 27.2853 331.331 21.1168C322.532 42.9788 313.325 15.7193 303.8 5.92227C294.275 -6.77764 284.432 22.7043 274.363 23.2032C264.294 37.2185 254.043 29.9614 243.656 39.7585C233.27 38.3524 222.792 36.3114 212.36 25.6525C201.883 52.413 191.405 31.05 181.064 31.685C170.677 25.1536 160.427 51.0523 150.357 23.1579C130.264 26.1968 110.988 23.8382 93.3893 19.7107C75.7908 11.0929 59.8706 28.1471 46.4903 23.1579C19.7298 13.4969 2.94775 12.8619 2.94775 23.2032V160.589C2.94775 174.468 2.94775 218.51 2.94775 216.287V331.221C2.94775 335.621 2.94775 382.656 2.94775 372.95V399.075Z"
        stroke="white" stroke-width="2" stroke-miterlimit="10" />
    <path
        d="M2.94775 66.5643C2.94775 64.3418 19.6844 52.9573 46.5357 66.5643C59.9613 56.9033 75.8816 45.5641 93.4346 66.5643C102.234 50.7348 111.441 50.5534 120.966 70.1475C130.491 72.37 140.334 67.3807 150.403 66.5643C160.472 92.7352 170.859 67.1086 181.245 77.3592C191.632 106.206 201.928 82.7114 212.406 69.6939C222.883 61.0308 233.36 50.3719 243.702 61.3029C254.089 81.2599 264.339 55.2705 274.408 66.5643C284.478 52.413 294.32 72.4607 303.845 72.7782C313.37 82.9381 322.577 93.8691 331.377 70.1475C348.975 76.5428 364.895 85.6142 378.276 66.5643C405.081 58.2187 421.863 94.232 421.863 66.5643"
        stroke="white" stroke-width="2" stroke-miterlimit="10" />
    <path
        d="M2.94775 109.925C2.94775 131.289 7.12058 117.137 14.6952 121.129C22.2244 129.293 33.11 93.7784 46.5357 109.925C53.2485 88.381 60.5509 76.5428 68.443 99.5841C76.2898 109.925 84.6808 120.131 93.48 109.789C102.279 107.522 111.487 94.6856 121.012 121.854C130.537 146.438 140.379 107.794 150.448 109.925C160.517 113.237 169.317 106.161 179.658 123.578C190.045 122.852 201.974 82.3031 212.451 108.383C222.928 115.504 233.406 110.198 243.747 99.9016C254.134 73.9575 264.385 96.5452 274.454 109.925C284.523 102.759 294.365 93.6424 303.89 107.839C313.415 114.733 322.623 104.21 331.422 110.107C349.02 111.332 364.941 102.532 378.321 109.925C405.127 102.169 421.909 95.4566 421.909 109.925"
        stroke="white" stroke-width="2" stroke-miterlimit="10" />
    <path
        d="M2.94775 153.287C2.94775 177.734 7.12058 160.544 14.6952 167.665C22.2244 162.131 33.11 155.418 46.5357 153.287C59.9613 138.591 75.8816 159.999 93.4346 157.323C102.234 161.814 111.441 132.695 120.966 158.729C130.491 158.094 140.334 162.993 150.403 153.287C160.472 189.98 170.723 151.291 179.885 165.578C190.271 130.608 201.928 167.71 212.406 154.693C222.883 184.129 233.36 164.807 243.702 143.852C254.089 154.511 264.339 153.786 274.408 153.287C284.478 158.593 294.32 165.85 303.845 162.131C313.37 177.87 322.577 148.207 331.377 154.965C348.975 167.71 364.895 146.075 378.276 153.287C405.081 168.572 421.863 159.319 421.863 153.287"
        stroke="white" stroke-width="2" stroke-miterlimit="10" />
    <path
        d="M2.94775 196.693C2.94775 228.488 19.6844 220.959 46.5357 196.693C53.2485 188.257 60.5509 206.354 68.443 198.553C76.2898 196.875 84.6808 203.406 93.48 199.777C102.279 199.278 111.487 203.134 121.012 214.337C130.537 189.436 140.379 198.099 150.448 196.738C159.202 174.876 170.768 182.134 181.155 202C191.541 198.598 202.019 232.117 212.451 197.51C222.928 187.712 233.406 193.79 243.747 198.235C254.134 211.389 264.385 186.896 274.454 196.738C284.523 178.55 294.365 208.304 303.89 200.186C313.415 188.529 322.623 177.371 331.422 195.287C340.221 189.935 348.612 191.522 356.459 182.769C364.306 204.903 371.653 193.382 378.366 196.738C405.172 204.132 421.954 217.194 421.954 196.738"
        stroke="white" stroke-width="2" stroke-miterlimit="10" />
    <path
        d="M2.94775 240.054C2.94775 235.337 19.6844 274.48 46.5357 240.054C59.9613 272.167 75.8816 240.417 93.4346 241.687C102.234 239.283 111.441 254.705 120.966 254.977C130.491 256.746 140.334 238.784 150.403 240.009C160.472 201.41 170.723 247.221 181.109 231.527C191.496 238.739 201.974 251.666 212.406 243.728C222.883 239.193 233.36 248.219 243.702 243.819C254.089 227.808 264.339 248.627 274.408 240.009C284.478 280.694 294.32 252.845 303.845 235.156C313.37 206.4 322.577 219.372 331.377 241.687C340.176 275.07 348.567 258.061 356.414 257.108C364.26 246.087 371.608 240.871 378.321 240.009C405.127 241.551 421.909 232.208 421.909 240.009"
        stroke="white" stroke-width="2" stroke-miterlimit="10" />
    <path
        d="M2.94775 283.415C2.94775 262.188 19.6844 290.491 46.5357 283.415C59.9613 269.899 75.8816 304.552 93.4346 280.694C102.234 301.286 111.441 285.547 120.966 285.275C130.491 286.091 140.334 278.653 150.403 283.461C160.472 267.087 170.723 249.216 181.109 264.683C191.496 243.456 201.974 281.012 212.406 281.193C222.883 273.119 233.36 290.4 243.702 294.256C254.089 288.994 264.339 263.458 274.408 283.461C284.478 268.629 294.32 280.966 303.845 282.372C313.37 285.774 322.577 293.711 331.377 285.275C348.975 299.744 364.895 244.681 378.276 283.415C405.081 263.549 421.863 306.457 421.863 283.415"
        stroke="white" stroke-width="2" stroke-miterlimit="10" />
    <path
        d="M2.94775 326.777C2.94775 336.483 19.6844 312.716 46.5357 326.777C59.9613 345.282 75.8816 312.988 93.4346 329.634C102.234 343.74 111.441 311.355 120.966 323.738C130.491 319.429 140.334 308.135 150.403 326.777C160.472 334.396 170.723 343.332 181.109 332.355C191.496 328.908 201.974 337.889 212.406 326.096C222.883 262.914 233.36 317.252 243.702 320.245C254.089 342.697 264.339 341.155 274.408 326.731C284.478 346.779 294.32 314.984 303.845 327.366C313.37 317.388 322.577 313.396 331.377 329.906C348.975 334.895 364.895 357.801 378.276 326.686C405.081 330.995 421.863 314.666 421.863 326.686"
        stroke="white" stroke-width="2" stroke-miterlimit="10" />
    <path
        d="M2.94775 370.183C2.94775 364.241 19.6844 364.241 46.5357 370.183C59.9613 381.432 75.8816 400.98 93.4346 370.183C102.234 345.645 111.441 358.39 120.966 345.418C130.491 329.589 140.334 375.989 150.403 370.183C160.472 367.053 170.723 376.488 181.109 378.846C191.496 401.389 201.974 385.105 212.406 372.995C222.883 350.77 233.36 366.328 243.702 374.356C254.089 354.58 264.339 390.367 274.408 370.228C284.478 367.552 294.32 377.939 303.845 368.822C313.37 369.684 322.577 338.751 331.377 368.596C348.975 357.801 364.895 408.328 378.276 370.228C405.081 363.516 421.863 389.324 421.863 370.228"
        stroke="white" stroke-width="2" stroke-miterlimit="10" />
</svg>